<svg xmlns="http://www.w3.org/2000/svg" height="480" width="480"><g transform="matrix(1.3333 0 0 -1.3333 -204.13 6244.2)"><circle fill-rule="evenodd" fill="#677e98" r="180" cy="-4503.1" cx="333.09" transform="scale(1 -1)"/><path fill="#677e98" d="M332.48 4568.05a239.04 239.04 0 0 1-57.66-7.23c-22.73-22.35-29.21-53.37-20.3-81.58 3.76-12.65 8.47-22.15 20-33.67a237.6 237.6 0 0 1 116.54-.17 80.4 80.4 0 0 1 20.23 81.17c-3.59 13.4-10.98 24.89-20.54 34.42a238.06 238.06 0 0 1-58.27 7.06zm1-14.75a49.73 49.73 0 1 0 0-99.47z"/><path d="M335.98 4453.9a50.55 50.55 0 0 0-3.42-.06v-1.34c0-.52-.07-1.05-.12-1.71h-22.82c-.04-.73-.1-1.32-.1-1.9 0-3.16 0-6.32-.03-9.49l3.34-.3-.02 1.9c-.03 2.11 0 4.22 0 6.34h2.5l.2-3.17 3.28.18.2 3.08h13.44v-3.27H321.2v-5.63l3.3-.14v2.42c2.37 0 4.49-.05 6.6.02 1.07.03 1.43-.33 1.43-1.4l-.01-1.2c1.15 0 2.3 0 3.45.02v2.47h8.3v-2.22c1.11.05 2.23.1 3.35.18l-.01 3.05c-.02 2.49-.04 2.49-2.53 2.5h-8.99v3.14h13.76l.25-3.08h3.22c0 .84-.14 1.58.05 2.22.12.4.72.93 1.1.93.42 0 1.19-.54 1.2-.86a442 442 0 0 0 .05-7.27c1.16.1 2.32.23 3.48.36 0 3.08-.01 6.15.07 9.23.04 1.54-.47 1.96-1.96 1.94-6.48-.06-12.97-.03-19.46-.03-.57 0-1.15.05-1.7.08-.09.32-.17.47-.17.62v2.39zm37.42 19.99a50.04 50.04 0 0 0-9.28-9.5l.23-.2c.06-.05.18-.04.32-.07.86.81 1.76 1.6 2.58 2.48.62.65 1.12.66 1.8.08.44-.39 1.05-.6 1.64-.91l-3.74-4.2 2.24-2.11 3.75 3.28 2.13-2.27c-.92-.85-1.73-1.64-2.58-2.4-.85-.74-.8-1.37.03-2.14.75-.7 1.4-1.54 2.39-.42.78.9 1.5 1.86 2.17 2.7 2.84-2 2.87-2.23.97-4.2-.83-.87-1.7-1.7-2.54-2.55l-3.55-3.67 5.23-5.44c1.23.23 2.46.48 3.69.73l-4.51 4.63 6.08 5.9 6.36-7.33c2.95 2.2 2.97 2.4.86 4.46-.63.6-1.3 1.16-1.93 1.77-1.08 1.04-2.13 2.1-3.44 3.4 1.26 1.15 2.32 2.09 3.35 3.06 2.78 2.62 2.77 2.62 5.5-.1l4.39-4.36c.49 1.32 2.59 1.74 1.22 3.2-2.7 2.9-5.57 5.63-8.85 8.9l-7.61-8.61-2.34 2.44 3.21 3.6-2.87 2.49-2.6-3.69c-.6.5-.82.65-1 .83-1.59 1.53-1.6 1.56-.07 3.06.62.6 1.37 1.08 2.18 1.71-1.13.97-1.9 1.62-2.72 2.3l-3.44-3.05-2.1 2.22 3.27 3.44-.43.54zm-85.7 1.69l-18.66-18.73 2.33-2.09 16.35 16.12c1.12-1.08 2.1-1.95 3-2.88 3.08-3.15 3.07-3.3-.4-6.09-.11-.1-.27-.14-.48-.24l-3.56 3.27-2.17-2.07.85-1c2.92-3.2 2.91-3.25-.64-5.89-.08-.06-.2-.07-.4-.14l-3.47 3.3-2.66-2.84c1.1-.88 2.04-1.64 3-2.38.76-.6.63-1.14-.02-1.73-1.2-1.1-2.38-2.2-3.65-3.4l2.3-2.4 4.48 4.3 3.53-3.27c.42.39.66.68.96.9 1.33.97 1.43 1.94.04 2.93-.76.54-1.53 1.06-2.46 1.7l4.02 3.77 3.45-3.24c.33.28.57.48.8.7 1.53 1.4 1.52 1.5.06 2.91-.68.67-1.32 1.38-2.04 2.14l3.61 3.4 5.66-5.65-14.15-14.31c1.1-.22 2.2-.42 3.3-.62l15.59 15.22c-2.18 2.07-4.3 4.01-6.35 6.04-1.66 1.64-1.7 2.31.11 3.45-.83.76-1.64 1.55-2.42 2.36l-1.67-1.52-8.25 7.98zm109.17 41.23c-1.57-.31-3-.42-4.3-.89-4.09-1.47-6.78-4.33-8.21-8.48-.41-1.17-.69-1.78-1.17-2.03a50.62 50.62 0 0 0 0-3.68c.49-.25.69-.86 1.11-2.1 1.62-4.73 4.85-7.84 9.69-9.11 3.1-.82 3.34-.51 2.95 2.46-2.2 1.02-4.38 1.75-6.25 2.98-1.99 1.3-2.95 3.47-3.48 5.96 3.86 0 7.45-.1 11.03.04 1.73.06 2.13-.57 2.08-2.15-.1-3.09-.03-6.18-.03-9.33h13.07v3.34h-9.62v8.14h9.58v3.4h-9.57v8.14h9.6v3.25h-13.1v-11.33h-12.98c1.37 5.1 4.78 7.44 9.6 7.96zm-135.37 11.55l-3.92-.01c-2.76-.03-2.77-.06-2.53-2.9 0-.1.1-.18.32-.52h9.44v-8.1h-9.63v-3.34h9.65v-8.23h-9.65v-3.38h9.64v-8.2h-9.6v-3.45h9.67c0-2.36-.04-4.43.02-6.5.04-1.13-.34-1.54-1.5-1.5-2.7.06-5.42.01-8.22.01v-3.3h13.16v22.94h3.12l12.3.02a50.63 50.63 0 0 0 .01 3.53h-15.53v22.93h-6.74zm115.13 35.69l-4.83-4.58.6-.64c2.09-2.08 4.2-4.13 6.24-6.25.38-.4.8-1.4.63-1.6-1.69-1.88-3.5-3.64-5.3-5.48a7.94 7.94 0 0 0-1.72 6.78c.37 2.11-.9 2.85-2.42 4.1-.36-1.32-.76-2.38-.91-3.47a13.4 13.4 0 0 1 1.86-8.94c.23-.4.36-1.09.17-1.45-.84-1.62-1.85-1.9-3.53-1.11l-1.34.61c-.65.32-1.32.58-2 .77a50.02 50.02 0 0 0 9.8-10.2 9.8 9.8 0 0 1-1.42 3.78c-.63.94-1.24 1.8-.1 3.01 1.12 1.17 1.96.96 3.08.24 2.93-1.89 6.19-1.93 9.48-1.51.79.1 1.53.53 2.31.82-1.22 2.02-2.62 2.97-4.75 2.4a4.2 4.2 0 0 0-1.46-.03c-1.66.17-3.37.2-4.52 1.61l6.08 6.22 7.68-8.05 9.4 9.29-2.3 2.08c-.51-.43-.99-.8-1.4-1.21-1.58-1.58-3.1-3.22-4.74-4.75-.32-.3-1.27-.42-1.56-.18-1.82 1.53-3.53 3.2-5.63 5.14l7.66 7-2.5 2.3-6.92-6.87-6.1 6c1.3 1.2 2.52 2.39 3.76 3.53l-3.3.64zm-76.71 1.68c-1.35-.19-2.69-.39-4.03-.6l9.9-9.63-10.25-10.87-1.22 1.16 3.49 3.83-2.44 2.28-3.46-3.26c-1.08.64-1.34 1.26-.95 2.47.44 1.35.62 2.88.48 4.3-.43 4.19-4.13 7-8.43 6.62-4.12-.36-7.41-4.02-7.23-8.04.24-5.64 5.56-9.09 11-7.03 1.26.48 1.9.16 2.58-.87l-3.14-3.56c.33-.42.58-.7.8-1 .92-1.27 1.84-1.4 2.8-.05.55.76 1.11 1.5 1.73 2.31.86-.79 1.3-1.2 1.76-1.6l-.67.34-10.25-11.06-15.66 16.51c-2.59-2.02-2.63-2.1-.72-4.03 4.52-4.58 9.1-9.1 13.62-13.66 1.1-1.1 2.07-2.34 3.28-3.71l12.87 13.12 1.71-1.8c.8.84 1.64 1.66 2.5 2.44l-.23.25c-.43.54-.92 1.02-1.67 1.84l12.58 12.27-10.75 11.03zm-16.02-7a4.52 4.52 0 0 0 2.91-1.2c1.52-1.27 1.55-2.93 1.26-5.02l-5.65 5.9c.5.22 1 .32 1.48.33zm-4.34-2.7l5.47-6.13a4.29 4.29 0 0 0-4.22.74c-1.53 1.29-1.76 2.96-1.25 5.38zm53.01 12.03c0-.33-.02-.72-.04-1.2 0-.1-.09-.19-.26-.51h-4.62l.17-3.45h4.8l-.19-3.18h-4.64v-3.25l4.82-.25-.17-2.92a50.68 50.68 0 0 0 3.66-.06l-.15 3.2h4.87c.03.6.02.98.07 1.35.23 1.58-.48 2.16-2.01 2.02-.9-.08-1.83-.01-2.8-.01v3.19h4.71v3.29l-4.67.21c-.07.65-.13 1.16-.15 1.56a219.71 219.71 0 0 1-3.4 0zm6.67-14.82a3.95 3.95 0 0 1-.54-.03c-.5-.06-1.01-.05-1.56-.04a49.9 49.9 0 0 0 3.33-.35c-.27.27-.68.4-1.23.42zm-11.55-.14v-.13l1.19.13z" fill="#fff"/><path d="M333.51 4580.45c-67.37.47-134.28-28.14-180.41-77.26 50.1-53.25 124.52-82.27 197.45-76.64 61.28 3.96 120.5 31.99 162.55 76.7-46.08 48.93-112.38 77.43-179.59 77.2zm-.1-12.35a237.9 237.9 0 0 0 57.34-7.06c22.09-21.53 29.91-56.02 19.45-85.01a81.97 81.97 0 0 0-19.14-30.58 237.6 237.6 0 0 0-116.54.17c-22.02 21.8-29.52 56.58-18.61 85.56a81.99 81.99 0 0 0 18.93 29.7 239.92 239.92 0 0 0 58.56 7.22z"/><g stroke-width="15.84" fill="#fff"><path d="M333.2 4433c.78.67 1.46.34 2.15-.3.75-.67 1.53-1.31 2.33-1.92.5-.37 1.06-.68 1.63-.94a3.68 3.68 0 0 1 2.94-.18l.12.04c1.42.4 1.9.26 3-.98-.17-.16-.33-.35-.54-.47a7.2 7.2 0 0 0-6.42-.46c-1.63.63-3 1.66-4.25 2.87l-1.03.98-.94-.88a13.52 13.52 0 0 0-3.99-2.82 7.28 7.28 0 0 0-7.09.5c-.06.06-.1.14-.14.2.53.97 1.23 1.38 2.2 1.25.24-.03.48-.1.72-.2a4.04 4.04 0 0 1 3.62.42c.76.45 1.45 1 2.15 1.53.5.38.97.8 1.44 1.23.55.5 1.12.73 1.8.22.05-.05.15-.05.3-.1m-.04 137.07c-.18-.04-.27-.05-.34-.08a6.8 6.8 0 0 0-5.74-.15 17.1 17.1 0 0 0-6 4.07c-.03.02-.03.07-.05.2.41.46.95.83 1.57 1.2l2.28-1.58 1.44-1.02a5.94 5.94 0 0 1 4.53-1.1c.6.08 1.17.09 1.72-.18.42-.21.79-.15 1.2.04.46.2.94.25 1.47.16 1.79-.31 3.4.13 4.87 1.2 1.14.85 2.33 1.65 3.52 2.49a6.34 6.34 0 0 0 1.6-1.24c-.09-.16-.13-.28-.21-.36a19.37 19.37 0 0 0-4.58-3.31 13.9 13.9 0 0 0-1.75-.72 6.52 6.52 0 0 0-5.15.24c-.1.06-.23.09-.38.14m-168.01-58.42c.27-1.43.05-2.11-1.13-2.73a4.25 4.25 0 0 1-2.33-3.5c-.07-.54-.12-1.08-.2-1.62-.04-.28-.14-.55-.23-.87.65-.02 1.36-.03 2.07-.08.87-.06 1.1-.28 1.22-1.13.05-.31.05-.64.06-.96a19.52 19.52 0 0 0-4.44-.03c-.97.12-1.91.3-2.81.66a5.8 5.8 0 0 0-2.51 1.81c.78 1.12 1.92 1.77 3.73 2.1.31-.64.09-1.28 0-1.98l.39-.13c.09.11.18.16.19.23.11.87.14 1.76.33 2.61.62 2.8 2.23 4.75 5.04 5.58.12.04.25.06.37.07l.25-.03m335.85.1a6.72 6.72 0 0 0 4.76-3.17 8.74 8.74 0 0 0 1.2-3.8l.07-1.01c.02-.25.02-.52.37-.56.22-.02.3.14.2.58-.12.5-.17.98.02 1.47a5.51 5.51 0 0 0 3.81-2c-.19-.43-.57-.7-.93-.97a7.57 7.57 0 0 0-2.97-1.32c-1.9-.42-3.82-.4-5.83-.3-.02.33-.07.6-.04.88.1 1 .36 1.25 1.33 1.3.71.05 1.42.06 2.25.09-.42.28-.5.62-.53 1-.04.63-.12 1.26-.22 1.88a3.89 3.89 0 0 1-2.18 3.04c-1.15.56-1.5 1.5-1.3 2.89"/><path d="M325.74 4573.95c.08.14.12.27.21.35 1.31 1.1 2.62 2.23 3.95 3.32a7.43 7.43 0 0 0 2.57 1.3c.46.15.89.14 1.35 0a6.7 6.7 0 0 0 2.24-1.11c1.44-1.16 2.85-2.36 4.26-3.55.09-.07.12-.2.17-.3l-.08-.13c-1.41-1.2-1.72-1.2-3.08 0-.5.44-.97.94-1.5 1.34-2.28 1.75-3.14 1.77-5.44-.02-.57-.43-1.06-.96-1.6-1.43a8 8 0 0 0-.79-.62 1 1 0 0 0-1.08-.05c-.44.23-.86.49-1.18.9m137.41-108.35c-.11-.28-.16-.48-.26-.65a6.95 6.95 0 0 0-6.57-3.65c-2.05.06-4.07.5-6.13.98.03.69.3 1.23.73 1.7.15.15.44.25.67.26.37.01.75-.05 1.12-.12.74-.13 1.48-.32 2.22-.42a6.37 6.37 0 0 1 5.27 1.48c.91.8 1.34.84 2.95.41m-260.05-.02c1.13.48 2.08.39 2.97-.4a6.2 6.2 0 0 1 5.14-1.48c.8.1 1.57.29 2.35.44 1.56.3 1.89.12 2.44-1.38.05-.12.04-.25.07-.43-.23-.07-.46-.16-.7-.2-1.65-.28-3.3-.65-4.97-.79a7 7 0 0 0-7.06 3.65c-.1.17-.15.37-.23.6m50.5 99.12c-.3-1.14-.97-1.82-2.08-2-2.2-.34-3.7-1.63-4.77-3.52-.4-.73-.77-1.5-1.2-2.21-.44-.74-.71-.83-1.57-.65-.36.08-.7.21-1.02.3-.01.14-.03.19-.02.22.9 1.9 1.86 3.77 3.16 5.42a6.97 6.97 0 0 0 6.92 2.66c.2-.03.37-.14.58-.23m25.25 3.21c.96 1.6 3.42 4.51 4.6 5.48 1.86 1.53 3.98 1.85 6.28 1.34.32-.07.64-.19 1.05-.31-.1-.27-.15-.5-.27-.69-.56-.83-1.35-1.26-2.36-1.13-1.72.21-3.03-.5-4.13-1.71-.6-.65-1.11-1.37-1.66-2.06-.3-.36-.55-.74-.85-1.09-.5-.58-.82-.64-1.56-.35-.35.14-.68.32-1.1.53m91.27-132.9c.03.1.03.15.06.18 1.38 1.75 1.68 1.37 3 .58l1.5-.92a6.97 6.97 0 0 1 2.84-.98 5.5 5.5 0 0 1 2.95.35c1.1.48 2.04.2 2.92-.63-.19-.21-.32-.42-.5-.57a7.03 7.03 0 0 0-7.12-1.18c-.67.23-1.31.55-1.93.9-1.1.6-2.18 1.26-3.27 1.9-.17.1-.31.26-.45.37m17.3 133.01c-.51-.42-.98-.6-1.45-.76a1 1 0 0 0-1.14.33c-.22.25-.42.52-.63.78-.51.67-1 1.36-1.54 1.99-.47.53-1 1.02-1.55 1.46a3.7 3.7 0 0 1-2.6.79l-.37-.03c-1.29-.1-2.15.48-2.73 1.7.2.1.37.23.55.28 2.91.85 5.46.3 7.61-1.91 1.38-1.42 2.56-3 3.85-4.63m-186.48-33.11c.72 2.3 1.33 4.48 2.41 6.47 1.41 2.6 3.73 3.57 6.55 3.68.08-1.16-.28-1.9-1.14-2.34a5 5 0 0 0-.94-.35 3.98 3.98 0 0 1-2.47-2c-.38-.7-.69-1.43-.96-2.18-.27-.74-.46-1.52-.7-2.28-.37-1.08-.65-1.27-1.74-1.19-.29.03-.57.1-1.01.2m211.63 29.85a7.22 7.22 0 0 0 7.63-2.59c1.26-1.68 2.19-3.56 3.17-5.4-.42-.4-.9-.4-1.34-.51-.57-.14-1 .08-1.28.56-.4.69-.78 1.4-1.14 2.1a7.06 7.06 0 0 1-2.25 2.67c-.76.54-1.56.98-2.51 1.08-1.18.13-1.88.83-2.28 2.1m17.93-6.8a7.53 7.53 0 0 0 6.93-2.68 17.35 17.35 0 0 0 2.96-6.32l-.09-.1c-1.71-.55-1.95-.43-2.67 1.2-.43.97-.86 1.92-1.35 2.85a6.8 6.8 0 0 1-.93 1.34c-.7.78-1.58 1.2-2.63 1.36-1.37.2-1.87.74-2.22 2.35m-134.36-122.89c-.09-.11-.14-.24-.24-.3-1.61-.91-3.2-1.87-4.84-2.7a7 7 0 0 0-5.4-.37 5.48 5.48 0 0 0-2.8 1.89c.84.8 1.76 1.07 2.87.61a6.25 6.25 0 0 1 5.47.44c.7.37 1.36.83 2.05 1.24 1.29.76 1.52.72 2.57-.41.12-.12.21-.26.32-.4m13.71 141.82c-.65-1.2-1.5-1.81-2.72-1.56-1.8.37-3.21-.31-4.44-1.5-.76-.72-1.44-1.52-2.15-2.3-1.05-1.14-1.3-1.2-2.68-.43-.14.08-.27.2-.39.27.02.12 0 .23.04.28a38.1 38.1 0 0 0 4.54 4.51 7.15 7.15 0 0 0 2.78 1.41c1.72.43 3.31.06 5.02-.68M235.72 4558c-.3-1.55-.83-2.2-2.08-2.36a4.64 4.64 0 0 1-3.69-2.7c-.5-.97-.94-1.97-1.38-2.96-.66-1.49-.94-1.62-2.51-1.16-.07.03-.13.1-.2.15 0 .08-.04.18-.02.25a26.05 26.05 0 0 0 1.96 4.62 8.83 8.83 0 0 0 2.47 2.82 7.62 7.62 0 0 0 5.45 1.34m171.05-114.26c.27.39.55.8.86 1.2.29.36.7.46 1.13.31.44-.14.86-.33 1.3-.5.94-.35 1.87-.75 2.83-1.03a4.5 4.5 0 0 1 4.2.62c1.03.79 2.09.67 3.22-.05-.13-.2-.2-.4-.34-.52-.53-.47-1.04-.98-1.62-1.38a6.42 6.42 0 0 0-5.05-1.04c-2.2.43-4.26 1.29-6.31 2.15-.07.03-.11.11-.22.24m-90.37 129.72c1.46 1.93 3.06 3.63 5.2 4.71a7.43 7.43 0 0 0 7.33-.18c-.73-1.32-1.37-1.7-2.64-1.35-1.7.47-3.14 0-4.47-1.02-.53-.41-1.02-.87-1.51-1.32-.31-.28-.6-.59-.9-.88-1.3-1.28-1.51-1.29-3.02.04m121.54-121.66a6.65 6.65 0 0 0-5.32-3.49c-1.06-.06-2.1.06-3.12.32-1.59.39-3.16.84-4.74 1.27-.06.02-.11.1-.23.2.17.5.48.94.82 1.36.3.36.7.47 1.14.35.64-.18 1.28-.4 1.92-.6.96-.28 1.92-.6 2.94-.67a4.34 4.34 0 0 1 3.38 1.03c.97.87 2.03.87 3.21.22m-164.41-15.96c.21.14.38.27.56.37.8.46 1.6.49 2.38-.02 1.32-.87 2.7-.83 4.1-.25.73.3 1.44.66 2.16 1.01.41.2.81.44 1.21.67 1.33.75 1.6.86 2.68-.61.07-.1.12-.22.21-.4-.2-.13-.38-.29-.59-.4-1.42-.72-2.84-1.44-4.28-2.13a7.46 7.46 0 0 0-2.4-.73 6.79 6.79 0 0 0-5.92 2.15c-.05.05-.05.15-.11.34m158.26 117.13c-.2-.08-.37-.18-.57-.24-1.1-.33-1.41-.2-1.92.8-.35.7-.67 1.44-1.04 2.15-.3.55-.6 1.1-.96 1.62a4.64 4.64 0 0 1-3.55 2.11c-1.33.11-1.86.72-2 2.17 1.56.29 3.06.09 4.5-.58a7.75 7.75 0 0 0 2.67-2.06 15.1 15.1 0 0 0 2.86-5.56c.04-.11 0-.25 0-.4m-65.84 22.79c1.8.82 3.56 1 5.34.37a9.54 9.54 0 0 0 2.13-1.07c1.95-1.32 3.3-3.17 4.46-5.21-.33-.46-.77-.59-1.2-.75a.83.83 0 0 0-.92.2c-.3.3-.56.62-.84.94-.6.7-1.17 1.43-1.8 2.1-.4.42-.85.81-1.34 1.14a3.8 3.8 0 0 1-2.98.7c-1.3-.26-2.18.29-2.85 1.58m-131.48-22.73c0 .09-.03.22 0 .33a16.24 16.24 0 0 0 2.48 5.06 7.84 7.84 0 0 0 4.85 3.15 6 6 0 0 0 2.7-.08c-.1-1.32-.63-2-1.85-2.08-1.87-.12-3.12-1.12-4.02-2.65-.55-.94-1.01-1.93-1.5-2.91-.7-1.46-1-1.57-2.54-.94-.03.01-.06.06-.12.12m-6.12-101.23c1.08.6 2.1.7 3-.1 1.48-1.33 3.17-1.36 4.95-.92.73.17 1.45.42 2.17.63l.6.2c1.12.33 1.49.63 2.43-.98.1-.17.16-.36.23-.52-.11-.1-.16-.19-.23-.21-1.9-.56-3.77-1.16-5.72-1.46-.78-.11-1.6-.15-2.38-.1a6.53 6.53 0 0 0-5.05 3.45m128.15 125.14c2.74 1.26 5.26 1.16 7.62-.69 1.76-1.37 3.21-3.04 4.75-4.64-.62-.58-1.13-.93-1.62-.96a1.4 1.4 0 0 0-.81.22c-.31.2-.55.51-.8.79-.6.64-1.16 1.33-1.8 1.94a9.7 9.7 0 0 1-1.68 1.3 4 4 0 0 1-2.78.5c-1.49-.26-2.17.13-2.88 1.54m-161.36-105.99c.37.05.7.12 1.02.15a1.8 1.8 0 0 0 1.77-.74c1.15-1.58 2.77-1.93 4.57-1.77a46 46 0 0 1 2.87.39c1.78.28 2 .16 2.5-1.57.02-.08.01-.17.03-.31-.22-.08-.44-.2-.67-.23-1.54-.19-3.08-.38-4.63-.52a7.87 7.87 0 0 0-2.5.12 6.86 6.86 0 0 0-4.96 4.07c-.03.07 0 .16 0 .4m74.68 94.8c.96 1.49 1.8 2.94 2.9 4.22a8.38 8.38 0 0 0 5 2.96c1.14.2 2.26.09 3.35-.3.1-.04.18-.14.34-.28-.24-.35-.46-.7-.72-1.02-.34-.4-.8-.61-1.33-.64-.12 0-.25-.02-.37 0-1.88.22-3.24-.68-4.36-2.05-.58-.71-1.1-1.48-1.65-2.22-.08-.1-.14-.21-.21-.32-1-1.4-1.3-1.45-2.95-.35m115.01 6.72c1.72.71 3.31.7 4.92.16a8.2 8.2 0 0 0 2.91-1.73 20.1 20.1 0 0 0 3.73-5.23c-.36-.35-.84-.5-1.31-.66a.83.83 0 0 0-.91.27c-.25.29-.48.6-.7.9-.54.75-1.05 1.53-1.64 2.24-.45.54-.97 1.05-1.53 1.49a3.7 3.7 0 0 1-2.59.8l-.38-.02a2.09 2.09 0 0 0-2.03 1l-.47.78m-73.61-143.17c.92 1.1 1.92 1.45 3.12.97a4.28 4.28 0 0 1 3.86.37c.73.4 1.4.91 2.1 1.4.54.39 1.06.81 1.6 1.21.49.37 1 .4 1.51.04.37-.27.72-.56 1.06-.83-.08-.15-.1-.24-.16-.29-1.78-1.33-3.53-2.7-5.53-3.71-2.64-1.33-5.1-.88-7.55.84m40.26 3.76c.03.06.04.1.07.13 1.23 1.29 1.44 1.3 2.84.3a53.6 53.6 0 0 1 2.71-1.83 4.66 4.66 0 0 1 4.45-.44c1.27.51 2.04.24 3-.92a7.27 7.27 0 0 0-6.26-1.5c-1.04.2-2.04.57-2.9 1.17-1.28.89-2.5 1.84-3.75 2.78-.09.06-.12.21-.16.31m59.76 8.01a6.15 6.15 0 0 0-2.45-2.05 7.52 7.52 0 0 0-4.41-.67 18.1 18.1 0 0 0-6.51 2.73c.08.17.15.36.26.52.76 1.13 1 1.2 2.28.63.77-.34 1.53-.71 2.3-1.03.55-.22 1.1-.43 1.67-.55 1.27-.29 2.52-.25 3.6.58s2.1.66 3.26-.16m-78.07-4.8c3.08 1.1 5.37.95 7.29-.52-.83-.62-1.62-1.18-2.73-1.01a6.14 6.14 0 0 1-4.24-.86c-.1-.07-.23-.1-.33-.14-2.2.98-2.33 1.2-4.98.99-.36-.03-.75.1-1.09.22-.35.13-.66.36-.99.55l-.32.2c1.78 1.5 4.04 1.67 7.39.57m115.91 108.33c-.4-.09-.75-.19-1.12-.23-.88-.1-1.22.08-1.6.87-.16.34-.28.7-.43 1.05-.27.66-.5 1.33-.81 1.97-.25.53-.55 1.04-.88 1.52a4.2 4.2 0 0 1-2.9 1.81c-1.13.18-1.76.88-2.01 1.97-.03.1.03.24.05.4 1.06.26 2.08.04 3.08-.24a5.99 5.99 0 0 0 3.4-2.43c.48-.68.92-1.4 1.28-2.16.64-1.32 1.2-2.67 1.8-4.01.06-.15.09-.32.14-.52m-156.82-112.76c.25.22.47.42.7.59a1.95 1.95 0 0 0 2.14.12c1.56-.82 3.09-.6 4.58.18.7.37 1.37.8 2.04 1.22.36.22.7.48 1.04.71 1.14.75 1.41.71 2.33-.32.1-.12.18-.27.26-.4-1.54-1.79-4.46-3.55-6.62-3.95a7.53 7.53 0 0 0-6.27 1.53c-.06.05-.1.14-.2.32m54.59 145.83a7.4 7.4 0 0 0 7.1.03c.87-.44 1.66-1 2.34-1.7 1.02-1.05 2-2.14 3.03-3.25-.3-.53-.78-.71-1.21-.92a.98.98 0 0 0-1.17.2l-.8.8c-.71.7-1.41 1.44-2.16 2.11-1.26 1.13-2.67 1.67-4.4 1.25-1.2-.29-1.95.17-2.73 1.48m-153.54-47.97c.42 2.05.75 4.08 1.67 5.94a7.52 7.52 0 0 0 5.04 4.22c.57.14 1.15.19 1.73.13-.01-1.47-.42-2.19-1.63-2.52a4.55 4.55 0 0 1-3.16-3c-.36-.93-.6-1.91-.9-2.88-.14-.48-.26-.97-.42-1.44-.14-.45-.48-.68-.95-.7-.46-.01-.9 0-1.38.25m26.45-73.6c1.04.55 2.1.63 2.99-.24 1.35-1.33 2.95-1.48 4.68-1.14.98.2 1.96.45 2.92.75 1.67.53 1.88.15 2.51-1.19.03-.07.02-.16.03-.26-.05-.05-.1-.13-.17-.15a22.49 22.49 0 0 0-4.83-1.41 11.1 11.1 0 0 0-2.88-.03 7 7 0 0 0-5.21 3.36c-.04.07-.02.17-.04.3m222.19 2.06c0 .08-.02.17 0 .25.55 1.49.81 1.64 2.32 1.28.81-.2 1.62-.42 2.44-.56.7-.12 1.42-.17 2.12-.18a4 4 0 0 1 2.95 1.2l.09.09c1.09 1 1.62 1.08 3.1.38-.14-.25-.25-.52-.42-.74a7.42 7.42 0 0 0-5.97-3.22c-2.26-.1-4.4.46-6.46 1.33-.07.03-.11.11-.17.17m-49.14-22.37a6.22 6.22 0 0 0-3.4-2.23 6.29 6.29 0 0 0-3.85.06c-2.16.72-4.11 1.85-6.11 2.93.06.18.08.31.14.4 1.14 1.55 1.36 1.45 2.77.67.91-.5 1.85-.99 2.8-1.43.48-.23 1.01-.38 1.54-.53.98-.27 1.9-.1 2.8.37.32.18.65.39 1.01.48.84.22 1.55-.12 2.3-.72m63.4 109.16a6.75 6.75 0 0 0 6.27-2.88c.44-.66.8-1.38 1.09-2.12.62-1.6 1.16-3.23 1.75-4.87-.61-.43-1.24-.38-1.85-.3-.36.06-.6.31-.72.65-.15.4-.28.79-.41 1.19-.26.8-.47 1.6-.77 2.38a9.98 9.98 0 0 1-.92 1.78c-.5.76-1.19 1.3-2.07 1.56l-.48.15c-1.2.34-1.78 1.16-1.89 2.46m-141.31-111.98c-1.64-1.32-3.14-2.67-4.99-3.51-2.63-1.2-5.21-1.16-7.68.45l-.3.23c-.06.06-.1.14-.15.2.73.98 1.55 1.3 2.59 1.03.16-.05.32-.11.47-.18a4.35 4.35 0 0 1 4 .3c.66.35 1.29.78 1.92 1.2.49.32.95.69 1.43 1.03 1 .7 1.24.68 2.19-.15.1-.08.18-.17.27-.27l.25-.33m4.61 144.63c-.28-.33-.43-.53-.6-.71a2.24 2.24 0 0 0-2.3-.68 4.32 4.32 0 0 1-4.1-1.07c-.76-.65-1.46-1.38-2.19-2.08-.18-.18-.34-.37-.51-.56-.95-.97-1.21-1-2.39-.25l-.46.36c.16.22.27.43.43.6.84.93 1.66 1.9 2.56 2.78a8.71 8.71 0 0 0 4.59 2.5c1.7.3 3.31.03 4.96-.89m153.45-47.91c-.25-.08-.37-.14-.49-.16-1.39-.21-1.7-.01-2.07 1.33-.26.93-.47 1.87-.78 2.78-.23.67-.53 1.33-.88 1.95a3.7 3.7 0 0 1-2.2 1.76l-.25.07c-1.02.24-1.58.9-1.76 1.9a6.8 6.8 0 0 0-.07.5c0 .03.03.07.06.15.56.14 1.14.04 1.7-.1a7.22 7.22 0 0 0 4.05-2.6 8.91 8.91 0 0 0 1.42-2.52c.6-1.61.94-3.29 1.27-5.06m-98.97-97.91c-.1-.12-.19-.26-.31-.36a7.51 7.51 0 0 0-6.55-1.3c-1.15.28-2.2.78-3.2 1.4a18.01 18.01 0 0 0-3 2.3c.05.15.06.29.13.37 1.04 1.24 1.27 1.27 2.6.4.83-.56 1.67-1.13 2.54-1.63a9.2 9.2 0 0 1 1.72-.73 3.9 3.9 0 0 1 2.94.2l.12.05c1.4.57 1.88.47 3.01-.7m-36.67 146.23a7.28 7.28 0 0 0 6.6.5c.85-.34 1.65-.84 2.4-1.36a13.46 13.46 0 0 0 3.48-3.71c-.23-.2-.45-.45-.72-.63-.7-.47-1.05-.45-1.68.12-.74.68-1.44 1.41-2.2 2.08-.53.46-1.11.9-1.72 1.26a4.14 4.14 0 0 1-3.28.45l-.12-.04c-1.36-.3-1.87-.07-2.77 1.33m-120.07-33.4c.03.2.02.36.09.5.69 1.54 1.38 3.07 2.09 4.6.18.37.41.73.63 1.08 1.5 2.43 3.76 3.37 6.53 3.28.08 0 .16-.05.24-.08l.1-.07c-.13-1.35-.63-2.07-1.88-2.28-1.81-.3-2.93-1.4-3.68-2.95-.46-.94-.83-1.93-1.23-2.9-.6-1.46-.83-1.6-2.37-1.31-.16.02-.32.08-.52.13m186.28 23.06a6.7 6.7 0 0 0 7.2-1.77c.43-.46.82-.96 1.17-1.48.83-1.26 1.63-2.54 2.44-3.82.08-.13.12-.3.16-.42-.06-.08-.07-.13-.1-.14-1.97-.98-2.1-.63-2.97.87-.51.86-1.06 1.71-1.61 2.55-.23.35-.51.67-.8.97a4.1 4.1 0 0 1-3.02 1.34c-1.49.02-1.93.38-2.47 1.9m43.06-111.66c-.1-.18-.18-.37-.3-.53a7.27 7.27 0 0 0-5.78-3.13 9.14 9.14 0 0 0-3 .29c-1.29.38-2.57.78-3.85 1.18-.11.04-.2.15-.3.22.7 1.98 1.23 1.85 2.7 1.4.8-.24 1.62-.44 2.44-.63a10 10 0 0 1 1.37-.2c1.32-.12 2.48.2 3.49 1.1 1.1 1 1.88 1.03 3.23.3m-235.25 4.72c.46.13.86.26 1.27.32.52.09 1-.06 1.4-.43.21-.2.41-.41.63-.6a4.21 4.21 0 0 1 2.64-1.08 12.1 12.1 0 0 1 3.49.42c.65.16 1.3.33 1.96.46.64.12.95-.03 1.24-.59.17-.33.28-.69.44-1.08-.27-.15-.48-.29-.7-.37a14.63 14.63 0 0 0-6.28-1.1 7.4 7.4 0 0 0-6 3.66c-.04.06-.03.16-.09.4m40.47 99.41c.05.14.07.31.16.45.87 1.38 1.75 2.76 2.65 4.12.3.45.65.88 1.03 1.27 1.83 1.86 4.06 2.4 6.58 1.9.2-.03.37-.14.55-.22-.52-1.46-1-1.9-2.34-1.9a4.21 4.21 0 0 1-3.56-1.8c-.7-.93-1.3-1.95-1.94-2.93-.23-.35-.42-.73-.66-1.07-.29-.42-.69-.6-1.2-.42-.43.15-.89.23-1.27.6"/><path d="M423.35 4552.75c.72.55 1.47.68 2.28.46.2-.05.4-.13.57-.24 1.87-1.24 3.89-1.14 5.94-.7.66.15 1.3.35 1.95.5 1.45.35 1.74.18 2.16-1.27.02-.07 0-.16 0-.3-.2-.11-.4-.26-.62-.34-1.53-.6-3.1-1.06-4.73-1.22-2.74-.28-5.16.4-7.08 2.47-.17.18-.3.4-.47.64m47.9-81.88a6.96 6.96 0 0 0-6.48-4.55c-1.17.02-2.34.14-3.51.25-.67.06-1.33.15-2 .25-.28.05-.56.13-.9.22.03.54.22 1 .42 1.44.19.44.53.63 1 .6l1.25-.14c1.08-.13 2.16-.31 3.24-.37 1.59-.1 2.98.35 3.98 1.7.75 1 1.75.96 3 .6m-211.77-27.14c-.16-.16-.21-.24-.29-.27-1.9-.77-3.8-1.56-5.81-2.02-2.97-.68-5.35.32-7.3 2.56-.05.05-.04.15-.08.29a2.46 2.46 0 0 0 3.1.08c1.32-1.03 2.8-1.09 4.3-.64.93.27 1.82.66 2.72 1 .43.16.85.35 1.29.5.48.17.92.08 1.24-.34.28-.35.53-.74.83-1.16m82.17-11.38c.54.41.92.73 1.34 1 .38.24.8.24 1.2 0 .31-.2.61-.43.91-.66.68-.5 1.32-1.06 2.02-1.5.64-.4 1.32-.74 2.02-1.02.8-.32 1.64-.32 2.46-.02l.36.13c1.33.4 1.99.19 2.98-.95-.21-.4-.62-.54-.98-.73a6.65 6.65 0 0 0-6.61-.1c-1.98 1.05-3.72 2.43-5.7 3.85m-41.4 143.43c-.7-1.4-1.34-1.82-2.7-1.6a4.2 4.2 0 0 1-3.6-1.1c-.72-.63-1.35-1.37-2-2.1-.4-.43-.72-.92-1.11-1.36-.59-.67-.85-.72-1.65-.37-.26.12-.5.29-.81.47.12.26.2.49.33.7a16.5 16.5 0 0 0 2.97 3.73 8.3 8.3 0 0 0 4.66 2.3 6.98 6.98 0 0 0 3.9-.67m-90.83-35.91c-.01.11-.07.24-.05.35.32 2.05.93 4 2.04 5.78a7.34 7.34 0 0 0 4.5 3.42c.82.2 1.64.34 2.5.1-.1-1.28-.69-2.1-1.95-2.33a4.46 4.46 0 0 1-3.28-2.68c-.34-.72-.63-1.47-.92-2.21-.15-.39-.25-.8-.39-1.2-.52-1.51-.75-1.63-2.45-1.23m59.02-98.87a33.6 33.6 0 0 0-3.52-1.77 10.5 10.5 0 0 0-2.89-.88 7.27 7.27 0 0 0-6.65 2.21c-.11.12-.19.27-.28.4 1.03.94 1.9 1.11 2.93.37a4.7 4.7 0 0 1 4.56-.5c1.07.37 2.1.86 3.14 1.31 1.45.65 1.66.6 2.54-.77l.17-.36m-31.3 6.9c1.1.65 2.1.74 3.06-.08 1.27-1.08 2.72-1.2 4.26-.82.73.19 1.44.43 2.16.66.4.13.79.28 1.18.44 1.22.5 1.85.54 2.54-1.13-.17-.13-.35-.3-.55-.42a15.16 15.16 0 0 0-5.55-1.9 7.32 7.32 0 0 0-6.97 2.87c-.04.07-.06.16-.13.38m151.62-9.27c.13.26.2.46.3.62.74 1.1 1 1.17 2.16.58.79-.4 1.56-.8 2.36-1.19a8.13 8.13 0 0 1 3.03-.78 3.4 3.4 0 0 1 1.94.38c.33.19.69.32 1.03.5a1.7 1.7 0 0 0 1.99-.26c.18-.15.35-.33.6-.56-.27-.18-.45-.34-.65-.46-.69-.4-1.4-.77-2.07-1.2a4.12 4.12 0 0 0-2.26-.64c-.97 0-1.93.05-2.87.32-2 .57-3.76 1.6-5.56 2.7m-29.66-1.94c.38.24.78.47 1.16.73a8.14 8.14 0 0 0 5.81 1.57c.7-.09 1.4-.21 2.06-.64-.6-1.02-1.4-1.63-2.56-1.6-1.94.07-3.48-.81-4.88-2.01-.66-.57-1.24-1.25-1.88-1.86-1.03-1-1.37-1-2.4-.02-.1.08-.14.2-.25.37.61.9 1.33 1.7 2.09 2.48.31.33.6.68.89 1.03z"/><path d="M273.13 4439.67c-.13-.11-.21-.22-.32-.26-.54-.22-1.1-.42-1.69-.65a7.57 7.57 0 0 0-1.82 2.36 4.32 4.32 0 0 1-1.25 1.54c-.7.53-1.47.98-2.2 1.46-.58.37-1.26.46-1.9.62a2.64 2.64 0 0 0-2.01 1.92 5.8 5.8 0 0 0 3.98.06 9.67 9.67 0 0 0 3.8-2.4c.35-.32.52-.84.81-1.24.68-.9 1.4-1.8 2.08-2.7.18-.22.34-.46.52-.71m-43.11 111.53c-.01.06-.04.1-.03.14.37 1.61.67 1.8 2.25 1.42.61-.15 1.22-.3 1.83-.48a8.5 8.5 0 0 1 2.61-.28 5.8 5.8 0 0 1 3.23.88c.98.66 1.96.52 3-.07-.15-.23-.24-.42-.37-.56-1.8-2.05-4.12-2.82-6.77-2.65-1.9.13-3.71.65-5.46 1.4-.11.04-.2.13-.29.2m185.9-104.2c.67 1.63 1.24 1.61 2.6 1.1 1.14-.44 2.3-.84 3.47-1.13a4.25 4.25 0 0 1 4.02.83c.97.83 1.98.77 3.1.1-.11-.22-.18-.45-.32-.63a7.18 7.18 0 0 0-6.35-2.65c-2.3.17-4.4 1-6.37 2.18-.07.04-.1.13-.15.2M311.6 4573.27c.3.39.53.7.78.97.32.35.72.42 1.14.2.3-.15.58-.34.86-.52.6-.4 1.18-.82 1.76-1.22a8.4 8.4 0 0 1 3.5-1.35 4.2 4.2 0 0 1 1.62.04c1.24.3 2.22-.04 3.1-1.02-.17-.15-.3-.3-.46-.4a7.57 7.57 0 0 0-6.2-.6 12.97 12.97 0 0 0-3.68 1.88c-.82.59-1.6 1.22-2.43 2.02"/><path d="M264 4437.92c.46.36.74.6 1.04.8.41.27.86.33 1.32.13.43-.18.86-.34 1.27-.56a3.69 3.69 0 0 1 2.19-.4c1.2.09 2.3.46 3.36.99.71.36 1.4.75 2.12 1.1.85.4 1.12.33 1.7-.44.18-.23.31-.49.51-.8-.22-.18-.39-.35-.6-.46-1.22-.64-2.44-1.3-3.7-1.88a8.77 8.77 0 0 0-3.16-.76 5.37 5.37 0 0 0-3.6.83c-.72.5-1.5.9-2.45 1.45m-44.9 26.84c.87.2 1.64.04 2.4-.15 1.6-.4 2.9-1.3 3.97-2.53a13.72 13.72 0 0 0 2.34-4c.29-.73.62-1.46.71-2.22-.05-.07-.07-.12-.1-.14-1.76-.97-2-.3-2.52.82-.29.6-.55 1.22-.83 1.83a8.87 8.87 0 0 1-1.97 2.74 4.6 4.6 0 0 1-1.9 1.2c-1.15.35-1.84 1.11-2.1 2.45m237.84 75.18l-.22-.16c-1.66-.27-1.82-.17-2.37 1.44-.32.9-.63 1.83-1 2.71a8.67 8.67 0 0 1-.94 1.64 3.7 3.7 0 0 1-2.24 1.52c-.2.04-.41.1-.61.16-1.14.35-1.55.9-1.64 2.26.78.26 1.57.1 2.33-.07a6.94 6.94 0 0 0 3.7-2.26 9.7 9.7 0 0 0 1.58-2.42 16.92 16.92 0 0 0 1.41-4.82"/><path d="M270.89 4443.96a4.8 4.8 0 0 0 3.17.5 5.74 5.74 0 0 0 2.47-.88c.79-.55 1.58-1.11 2.28-1.77a19.24 19.24 0 0 0 3.35-4.4c-.54-.47-1.15-.61-1.79-.84-.2.2-.43.37-.61.59-.57.67-1.1 1.37-1.7 2.03-.5.55-1.03 1.1-1.6 1.58a5.37 5.37 0 0 1-3.06 1.36 2.8 2.8 0 0 0-2.3 1.33c-.1.14-.13.3-.21.5m133.44 2.74c-.34-.97-.86-1.57-1.7-1.87-.32-.1-.66-.15-.98-.25-.36-.1-.74-.18-1.06-.37a28.37 28.37 0 0 1-2.52-1.66 3.99 3.99 0 0 1-1.14-1.46 9.43 9.43 0 0 0-1.76-2.34c-.67.26-1.33.5-2.07.8.16.27.26.49.4.67l1.93 2.48c.18.24.41.45.53.71.48 1.1 1.45 1.7 2.37 2.34a7.2 7.2 0 0 0 2.89 1.18c1.01.2 2 .12 3.11-.24M265.06 4564.6l1.32 1.65a9.58 9.58 0 0 0 2.8-1.18c.48-.31.99-.52 1.51-.59.96-.13 1.93-.2 2.89-.18.61.01 1.23.2 1.83.4 1.05.35 1.97.17 2.86-.6-.16-.2-.29-.41-.46-.56a6.49 6.49 0 0 0-4.24-1.68c-.71 0-1.43.03-2.14.1a4.7 4.7 0 0 0-1.76.56c-1.12.56-2.33.95-3.49 1.44-.37.15-.83.18-1.12.64m130.34-120.64c-.49-1.08-1.22-1.67-2.26-1.76-1.94-.17-3.35-1.24-4.6-2.6-.6-.65-1.14-1.35-1.7-2.02l-.84-.99c-.69.12-1.29.37-1.84.72v.16a17.07 17.07 0 0 0 4.77 5.62 7.26 7.26 0 0 0 3.09 1.35c1.14.2 2.25.1 3.38-.48m51.76 20.88c-.24-1.24-.76-2.05-1.82-2.4-1.84-.6-2.99-1.96-3.9-3.56-.37-.65-.64-1.36-.96-2.05a12.3 12.3 0 0 0-.58-1.1c-.25-.41-.62-.57-1.08-.42l-1.06.39c0 .18-.03.31 0 .42a16.4 16.4 0 0 0 2.5 5.32 7.87 7.87 0 0 0 4.42 3.15c.48.13.99.18 1.48.24.29.03.58 0 1 0m-105.32 105.49c.84.93 1.72 1.38 2.8 1.12 1.76-.43 3.32.12 4.84.89.7.36 1.33.87 2 1.31.38.26.75.53 1.16.75.51.28.86.23 1.24-.17.26-.27.46-.58.73-.92-.2-.23-.36-.42-.54-.58a16.82 16.82 0 0 0-4.72-3.07 7.94 7.94 0 0 0-5.41-.37c-.48.15-.94.36-1.4.58-.22.1-.4.26-.7.46M203.72 4469.3h-2l-.57 1.55c-.27.75-.5 1.52-.83 2.24-.32.72-.72 1.42-1.15 2.09a4.9 4.9 0 0 1-2.09 1.77 2.54 2.54 0 0 0-1.58 2.12c-.01.12.04.24.08.4.68.2 1.33-.02 1.97-.2a5.94 5.94 0 0 0 2.65-1.62c.78-.79 1.37-1.7 1.86-2.7a17.7 17.7 0 0 0 1.66-5.65m184.21 94.77c.87.76 1.77 1.05 2.75.65 1.56-.64 3.14-.42 4.72-.26.58.06 1.13.26 1.63.6.83.58 1.8.84 2.74 1.23.23-.24.4-.42.56-.61l.9-1.14c-.26-.15-.46-.3-.68-.39-1.17-.47-2.34-.92-3.5-1.4-.46-.19-.88-.5-1.36-.62a9.57 9.57 0 0 0-4-.17 6.36 6.36 0 0 0-3.76 2.1m-215.88-51.27c.26 2.13.42 4.14 1 6.08a6.38 6.38 0 0 0 5.24 4.69c.2.02.4 0 .6 0 .23-.95 0-1.7-.67-2.25-.13-.1-.27-.2-.42-.27-1.77-.95-2.65-2.51-2.99-4.42-.13-.74-.16-1.5-.27-2.25-.2-1.42-.45-1.63-1.86-1.66-.16 0-.32.04-.63.08m307.05-36.84c-.83-1.01-1.58-1.96-2.38-2.88a2.72 2.72 0 0 0-.82-.56 8.6 8.6 0 0 0-3.38-.93c-2.03-.14-4.02.14-5.99.61-.03.01-.06.05-.12.12-.04.44.13.87.29 1.3.16.44.53.65 1 .6.7-.06 1.41-.17 2.12-.26a9.91 9.91 0 0 1 4 .16c.78.22 1.5.53 2 1.22.1.13.23.25.35.37.78.82 1.4 1.17 2.93.25"/><path d="M187.16 4475.93c.46.45.93.5 1.38.58.4.06.75-.1 1.04-.36.29-.25.58-.5.8-.8a3.7 3.7 0 0 1 2.13-1.26 9.93 9.93 0 0 1 3.87-.15c.67.09 1.33.2 2 .26.72.07 1-.12 1.23-.8.09-.23.15-.47.2-.72.03-.12.01-.24.01-.35-.3-.35-.71-.27-1.06-.34a19.3 19.3 0 0 0-4.63-.44 8.9 8.9 0 0 0-3.76.95c-.33.17-.67.38-.91.65-.77.88-1.5 1.8-2.3 2.78m283.63 3.55c-.06-1.19-.54-2-1.48-2.44-1.64-.76-2.6-2.1-3.28-3.68-.36-.84-.65-1.72-.97-2.6l-.5-1.4c-.67-.2-1.3-.08-1.85-.05-.27.27-.19.53-.14.76.4 1.8.92 3.58 1.79 5.23.45.86 1 1.65 1.68 2.35a6.27 6.27 0 0 0 4.14 1.9c.16.01.32-.04.6-.07M307 4436.79c.28-.3.56-.62.85-.91.8-.8 1.56-1.64 2.2-2.56-.02-.43-.35-.59-.6-.79-.66-.52-1.03-.52-1.66.05-.53.47-1.01 1-1.51 1.5a9.78 9.78 0 0 1-2.48 1.9 5.8 5.8 0 0 1-3 .8c-1.21-.07-2.05.53-2.68 1.57a4.3 4.3 0 0 0 2.07.66 7.88 7.88 0 0 0 5.38-1.3c.5-.31.98-.63 1.47-.95zm106.35 7.48l-1.97.6c.1.31.14.55.25.76.66 1.31 1.38 2.6 2.29 3.76.7.9 1.47 1.72 2.42 2.36a7.08 7.08 0 0 0 5.64 1.1c-.28-.92-1.04-1.77-1.9-1.92-2.1-.39-3.53-1.62-4.62-3.38-.65-1.07-1.35-2.12-2.1-3.28m-19 126.21c.24.03.48.09.72.09.84 0 1.68-.06 2.51-.02.8.04 1.48-.21 2.15-.58.82-.44 1.55-1 2.2-1.66 1.49-1.51 2.47-3.36 3.51-5.2-.2-.15-.31-.27-.46-.34-1.41-.72-1.72-.44-2.34.62-.39.65-.76 1.31-1.21 1.91a14.9 14.9 0 0 1-1.65 1.89 4.1 4.1 0 0 1-3.05 1.26l-.38.02c-1.33.13-1.74.54-2 2.01m-192.51-39.45a6.73 6.73 0 0 0-3.23-3.5c-1.06-.54-2.2-.81-3.36-.99a2.24 2.24 0 0 0-.5-.02l-4.13.32-1.13.09c-.1.81.32 1.42.49 2.1 1 .13 1.92.07 2.8-.15a4.7 4.7 0 0 1 2.24.02c.73.17 1.44.45 2.16.68a5.4 5.4 0 0 1 1.7 1.04c.85.7 1.78.9 2.96.41"/><path d="M307.04 4436.76c.15.3.4.5.72.64 1.69.74 3.41.86 5.14.22a12.1 12.1 0 0 0 2.14-1.05c1.7-1.04 3.1-2.42 4.43-3.89.08-.08.1-.22.19-.4-.54-.32-1.07-.64-1.64-1-.26.17-.52.3-.73.48-.9.77-1.8 1.53-2.66 2.32a6.03 6.03 0 0 1-4.58 1.7 3.2 3.2 0 0 0-1.8.46c-.4.22-.74.56-1.25.54l.04-.02m101.93 126.66l1.18-1.52c-.27-.19-.45-.34-.66-.45a19.37 19.37 0 0 0-5.3-1.94 8.46 8.46 0 0 0-4.23.15 5.78 5.78 0 0 0-2.92 2.11c.3.47.73.6 1.18.68.63.12 1.25.03 1.84-.26a5.4 5.4 0 0 1 3.8-.33c1.1.28 2.17.65 3.25.98.6.18 1.14.51 1.86.58m-148.18-.32c1.08 1.92 2.07 3.82 3.63 5.32.48.46 1.02.87 1.57 1.25.88.6 1.83.97 2.95.88.95-.07 1.92-.01 2.87-.01.02-1.15-.46-1.82-1.45-2a7.1 7.1 0 0 0-1.25-.11 3.42 3.42 0 0 1-1.77-.58 6.9 6.9 0 0 1-2.02-1.85 49.93 49.93 0 0 1-1.67-2.52c-.8-1.28-1.08-1.37-2.42-.7-.1.05-.2.14-.44.32"/><path d="M256.09 4561.82c.21.31.34.52.5.72.22.3.46.58.7.87.72-.06 1.3-.42 1.94-.6 1.08-.34 2.16-.7 3.25-.97a5.5 5.5 0 0 1 3.7.34 2.8 2.8 0 0 0 3.03-.28c-.14-.23-.24-.45-.4-.61a5.97 5.97 0 0 0-4.1-1.94 10.7 10.7 0 0 0-3.26.29 21.25 21.25 0 0 0-5.36 2.18m188.93-14.79c-1.15-.51-2.18-.69-3.2-.92a14.4 14.4 0 0 0-4.24-.34 6.93 6.93 0 0 0-5.5 3.06c-.1.13-.16.3-.22.44-.01.03.03.08.07.2 1.1.07 2.16.1 3.17-.62a5.32 5.32 0 0 1 3.97-.83c1.24.19 2.47.43 3.7.65l1.13.17c.52-.5.7-1.15 1.12-1.81m19.44-16c.97.47 1.9.4 2.64-.25a9.41 9.41 0 0 1 3.84-1.8 4.62 4.62 0 0 1 2.48-.1c.89.22 1.81.22 2.75.2.35-.69.55-1.36.67-2.1-.21-.05-.36-.1-.52-.12-1.63-.08-3.27-.03-4.89-.35a.4.4 0 0 0-.12-.01c-2.8.35-5.22 1.3-6.65 3.94-.1.17-.13.38-.2.6"/><path d="M480.18 4524.38c-.21-.1-.32-.17-.44-.2-1.4-.26-1.73-.05-1.99 1.34-.11.61-.2 1.24-.32 1.86a8.53 8.53 0 0 1-1.38 3.36c-.38.52-.81.95-1.44 1.17a6.3 6.3 0 0 0-.91.43c-1.1.6-1.32 1.13-1.03 2.55.2-.05.4-.09.59-.16.78-.29 1.56-.63 2.36-.88.84-.26 1.46-.8 2-1.46a9.63 9.63 0 0 0 1.78-3.59c.39-1.42.6-2.87.78-4.42m-245.69 25.12c-.17-.35-.23-.54-.34-.7a6.76 6.76 0 0 0-5.02-2.99c-2.67-.3-5.22.3-7.83 1.15.2.7.57 1.24.92 1.84.36-.02.69-.02 1-.08 1.04-.18 2.07-.37 3.1-.58a6.4 6.4 0 0 1 5.16.9c.46.33.98.45 1.54.46h1.47m169.82-108.08a5.5 5.5 0 0 0-1.86.56c.04.19.05.36.12.5.7 1.4 1.5 2.71 2.5 3.91.7.85 1.48 1.62 2.4 2.2a6.94 6.94 0 0 0 5.98.91c-.63-.88-1.24-1.66-2.32-1.83a6.34 6.34 0 0 1-4.38-2.9c-.57-.83-1.16-1.65-1.75-2.47-.22-.3-.46-.58-.69-.88m-115.55-1.75c.7.6 1.53.73 2.35.82 1.38.17 2.67-.2 3.89-.82a11.9 11.9 0 0 0 2.57-1.8 21.8 21.8 0 0 0 2.96-3.26c.1-.13.16-.28.28-.49-.3-.19-.58-.37-.86-.52-.3-.16-.6-.29-.92-.44-.28.26-.54.47-.77.7l-2.65 2.7a5.32 5.32 0 0 1-3.8 1.7c-1.26 0-2.15.6-3.05 1.4m-102.66 84.72c.16 1.72.4 3.34.9 4.9a8.62 8.62 0 0 0 2.15 3.67 3 3 0 0 0 .9.65c1.1.45 2.2.84 3.3 1.25.07.03.17-.01.25-.02.28-1.34.05-1.89-1.04-2.49-.26-.14-.52-.29-.8-.38a3.35 3.35 0 0 1-1.77-1.53c-.65-1-.99-2.13-1.22-3.29-.12-.58-.2-1.16-.3-1.74-.06-.29-.11-.6-.26-.84a.98.98 0 0 0-.57-.42c-.5-.1-1-.08-1.55.24m-14.06-6.58c0-.52.04-.89-.01-1.25a1.6 1.6 0 0 0-.83-1.2 9.52 9.52 0 0 0-.67-.35 3.56 3.56 0 0 1-1.9-2.08 12.8 12.8 0 0 1-.55-2.32c-.14-.86-.17-1.75-.25-2.63-.1-1.07-.31-1.28-1.4-1.33l-.38.01c-.08.01-.16.05-.3.1-.04.1-.13.26-.14.41a15 15 0 0 0 .48 5.36 7 7 0 0 0 5.04 5.14c.24.07.49.08.9.14m296.58 16.54l.72-1.77c-.26-.1-.44-.18-.63-.22a17.2 17.2 0 0 0-5.63-.46c-2.76.24-4.98 1.4-6.35 3.92-.06.1-.1.23-.15.34-.01.04.01.09.02.13 1.18.22 2 .08 2.78-.58a6.36 6.36 0 0 1 4.77-1.56c.92.07 1.84.15 2.76.2.54.02 1.09 0 1.7 0m-215.81-84.84c2.25.64 4.16.24 5.95-.89a9.76 9.76 0 0 0 2.25-2c1.1-1.27 2-2.7 2.73-4.21.05-.1.06-.23.09-.37-.12-.08-.2-.18-.31-.21l-1.48-.44c-.2.24-.41.44-.58.67-.69.95-1.37 1.91-2.04 2.87a6.15 6.15 0 0 1-4.2 2.73c-1.1.17-1.72.93-2.41 1.86m241.32 63.33c-.19-.07-.26-.12-.34-.12-1.57-.02-1.81.17-2.05 1.7-.08.49-.12.99-.16 1.49a6.8 6.8 0 0 1-.99 3.08 5.1 5.1 0 0 1-2.03 2c-1.04.5-1.38 1.37-1.29 2.53.5.13.95.03 1.38-.1a6.41 6.41 0 0 0 4.39-4c.2-.5.35-1.03.44-1.56.24-1.45.44-2.9.65-4.35.03-.2 0-.42 0-.67m6.47-6.03l-.17-.11c-1.92-.26-1.96.46-2.03 1.7-.04.92-.12 1.84-.27 2.75a9.1 9.1 0 0 1-.54 1.93 3.55 3.55 0 0 1-1.77 1.89l-.45.22c-1.05.56-1.3 1.17-1 2.55.15 0 .32.03.47 0a6.83 6.83 0 0 0 4.6-3.41 10.54 10.54 0 0 0 1.2-4.33c.1-1.08.15-2.17-.04-3.19m-20.54 22.37a6.06 6.06 0 0 0 5.99-4.24c.44-1.35.69-2.77 1-4.16.14-.65.21-1.31.32-2-.6-.34-1.18-.28-1.75-.15-.3.07-.5.3-.58.61-.1.41-.16.82-.24 1.24-.18.94-.32 1.9-.56 2.84-.15.6-.41 1.19-.7 1.74a3.15 3.15 0 0 1-1.67 1.47l-.24.07c-1.31.53-1.61 1-1.57 2.58m-188.63-93.66c-.45-.43-1.1-.51-1.65-.88-.26.23-.5.4-.69.6l-2.54 2.78a5.72 5.72 0 0 1-4.04 2.05 4.4 4.4 0 0 0-2.72 1.33c-.03.33.2.37.39.44 1.55.6 3.1.6 4.65 0 .95-.37 1.8-.9 2.59-1.53a19.44 19.44 0 0 0 3.95-4.51c.05-.07.04-.16.07-.28m130.85 12.07c-.73.17-1.34.24-1.92.5.03.2.02.33.06.43a17.3 17.3 0 0 0 3.23 5.37 7.95 7.95 0 0 0 4.2 2.63c.93.2 1.84.21 2.81-.17-.43-.87-1-1.62-1.91-1.85-2.17-.55-3.58-1.9-4.6-3.8-.55-1.04-1.21-2.02-1.87-3.11m-208.34 96.78l3.56-.48.87-.13c1.7-.25 3.25.12 4.67 1.09.96.66 1.52.73 2.9.5-.09-.23-.15-.47-.26-.68a6.2 6.2 0 0 0-4.1-2.91 12 12 0 0 0-4.12-.25 19.4 19.4 0 0 0-3.94.81c-.16.05-.3.15-.48.26.2.62.47 1.17.9 1.8m226.4 1.05c1.05.1 2 .1 2.82-.51a6.47 6.47 0 0 1 5.14-1.12c.79.13 1.57.25 2.36.36.54.08 1.08.12 1.64.19.49-.49.65-1.1.97-1.71-.2-.12-.35-.27-.53-.32-2.02-.6-4.07-.97-6.2-.84-1.14.07-2.24.3-3.28.79a5.65 5.65 0 0 0-2.72 2.52c-.09.17-.12.37-.2.64m-59.01 25.28c.63-.45 1.11-.9 1.43-1.6-2.37-1.6-4.78-3.02-7.69-3.24a7.02 7.02 0 0 0-5.44 1.86c-.03.03-.02.08-.05.18.93.45 1.85.86 2.95.46a6.09 6.09 0 0 1 4.9.4c.9.44 1.8.9 2.7 1.36.37.19.75.36 1.2.58m-21.04-1.49c1.15.51 2.12.79 3.2.47a5.75 5.75 0 0 1 4.51.57c.96.53 1.92 1.04 2.89 1.56.36.2.74.37 1.1.56.6-.35 1.02-.82 1.5-1.34-.18-.19-.33-.38-.52-.52a16.97 16.97 0 0 0-5.56-2.88 7.97 7.97 0 0 0-4.23-.18c-1.08.28-2 .8-2.9 1.76m-182.28-80.34c-.14-.1-.2-.17-.28-.18a13.26 13.26 0 0 0-6.85.06 6.57 6.57 0 0 0-4.5 4.4c-.04.12-.05.25-.06.37l.02.12c1.27.44 2.06.28 2.68-.8a4.26 4.26 0 0 1 3.74-2.17c.88-.05 1.76-.04 2.65-.04.5 0 1 .04 1.5.02.48-.01.8-.28.92-.73.09-.36.12-.73.18-1.05m61.52 68l3.33-.87c.44-.12.88-.26 1.33-.37a5.4 5.4 0 0 1 4.03.44 4.6 4.6 0 0 0 3.35.41c-.05-.18-.05-.4-.15-.54a6.25 6.25 0 0 0-4.67-2.61 11.49 11.49 0 0 0-4.24.33c-1.17.32-2.31.74-3.46 1.13-.19.07-.35.19-.59.31.27.68.68 1.19 1.06 1.77m175.05-.38c1.27.17 2.29.25 3.33-.34 1.4-.8 2.93-.89 4.5-.44 1.4.4 2.82.76 4.27 1.15.55-.46.82-1.06 1.13-1.62-.07-.1-.1-.21-.15-.24a16.93 16.93 0 0 0-6.9-1.72 7.9 7.9 0 0 0-2.6.33 6.02 6.02 0 0 0-3.58 2.87m41.87-92.22c-.71 0-1.33-.07-1.98.2.01.22 0 .43.05.62a19.26 19.26 0 0 0 2.06 5.24 9.28 9.28 0 0 0 2 2.41 6.55 6.55 0 0 0 4.75 1.53c-.06-.26-.07-.46-.16-.62a4.12 4.12 0 0 0-1.95-1.87 5.63 5.63 0 0 1-3-3.24c-.55-1.4-1.15-2.79-1.77-4.27m-93.78 109.49l1.48-1.31c-.07-.15-.09-.3-.17-.36a20.34 20.34 0 0 0-4.93-2.98 12.2 12.2 0 0 0-2.53-.72 6.47 6.47 0 0 0-5.29 1.42c-.05.04-.06.14-.12.3 1.01.5 2.02.86 3.2.56a5.44 5.44 0 0 1 4.12.62c1.02.57 2.03 1.18 3.04 1.77l1.2.7m-118.47-120.9c2 .43 3.8.09 5.48-.94a9.5 9.5 0 0 0 2.25-2 21.08 21.08 0 0 0 2.86-4.58c.05-.1.04-.24.06-.38-.53-.4-1.15-.48-1.83-.63-.17.2-.39.4-.54.63-.6.91-1.2 1.83-1.77 2.75a6.42 6.42 0 0 1-4.46 3.2c-.44.07-.8.27-1.08.6-.35.4-.78.75-.97 1.35m123.07-19.73c-.6.32-1.2.62-1.75.9.04.18.04.27.08.34a17.75 17.75 0 0 0 5.1 4.97 7.08 7.08 0 0 0 4.31 1.16 4.57 4.57 0 0 0 2.51-.8 4.23 4.23 0 0 0-3-1.44 5.49 5.49 0 0 1-3.92-1.77 432.2 432.2 0 0 0-2.38-2.43l-.95-.93m80.91 26.49c-.52.03-.9.05-1.27.09-.2.01-.4.06-.69.1 0 .23-.04.43.01.61a20 20 0 0 0 2.21 5.06 9.24 9.24 0 0 0 2.74 2.9 5.85 5.85 0 0 0 4.28.91 3.63 3.63 0 0 0-1.57-2.05c-.21-.12-.46-.2-.68-.3a6.04 6.04 0 0 1-3.13-3.14c-.43-1-.88-2-1.33-2.99l-.57-1.2m-89.01-22.85c-.34-.15-.7-.27-1.02-.45a3.58 3.58 0 0 0-2.03-.53 5.75 5.75 0 0 1-4.26-1.53l-2.57-2.23-.93-.76-1.76 1.03c.12.2.18.36.28.48a23.29 23.29 0 0 0 4.03 3.6 9.46 9.46 0 0 0 3.3 1.5c1.57.34 3.08.13 4.53-.57.27-.13.35-.33.39-.59l.04.05m-43.87 133.29c-.2-.2-.32-.36-.48-.47a6.8 6.8 0 0 0-6.22-.95c-.91.3-1.8.68-2.66 1.1-1.34.69-2.6 1.53-3.75 2.49.55.81.56.83 1.57 1.47l2.46-1.44c.58-.34 1.16-.68 1.75-1a5.33 5.33 0 0 1 4-.6c1.2.32 2.2-.03 3.33-.6m-118.21-37.53c-.02.68.34 1.21.61 1.8.7.16 1.4.02 2.11-.02.96-.05 1.92-.13 2.89-.16a5.42 5.42 0 0 1 3.94 1.36c.9.82 1.92.9 3.1.92-.08-.28-.1-.5-.2-.66a6.99 6.99 0 0 0-3.44-3.17 8.42 8.42 0 0 0-2.67-.68 18.08 18.08 0 0 0-5.86.44c-.16.04-.31.1-.48.17m12.77-68.22l-.88 2.11-.86 2.1a6.1 6.1 0 0 1-3.1 3.33c-1.17.6-1.42.9-2.02 2.26.11.24.35.19.54.19a6.56 6.56 0 0 0 4.65-1.95c.97-.96 1.68-2.1 2.25-3.32a20.9 20.9 0 0 0 1.5-4.5c-.23-.07-.44-.2-.67-.22-.42-.03-.84 0-1.4 0m176.79-22.74c-.75-.7-1.42-1.29-2.38-1.41l-.75-.1a5.62 5.62 0 0 1-3.52-1.77l-2.47-2.68-.86-.92c-.69.24-1.31.45-1.9.92 1.44 2.12 2.99 4.07 5.15 5.46a6.9 6.9 0 0 0 4.4 1.2 5.1 5.1 0 0 0 2.33-.7m-112.32 125.6c.29.56.76.96 1.23 1.44.28-.09.56-.16.82-.27 1.03-.45 2.07-.9 3.1-1.37a6.24 6.24 0 0 1 5.22-.26c.49.2.96.25 1.47.1.44-.15.88-.25 1.43-.4-.18-.24-.3-.46-.46-.6a7.14 7.14 0 0 0-5.72-1.69c-2.34.3-5.32 1.56-7.1 3.05m75.48-131.06c-.96-.66-1.85-1.14-3.04-1.02-1.5.15-2.9-.28-4.1-1.24l-2.76-2.2c-.32-.26-.66-.5-1.02-.77a5.6 5.6 0 0 0-1.65 1.1 14.46 14.46 0 0 0 7.18 5.1c1.68.44 3.32.39 4.85-.54.18-.1.32-.25.54-.42m-66.18 133.03c.4.8.4.8 1.33 1.53.26-.11.57-.23.86-.37 1.06-.52 2.1-1.07 3.16-1.57a5.85 5.85 0 0 1 4.64-.4c1.15.41 2.11.08 3.18-.46-.2-.2-.33-.35-.49-.48a7.53 7.53 0 0 0-6.06-1.43 16.84 16.84 0 0 0-6.62 3.18m22.32.09a4.96 4.96 0 0 0-2.8-1.77 7.71 7.71 0 0 0-3.98.1 16.12 16.12 0 0 0-6.26 3.36c.38.7.38.7 1.4 1.44l1.08-.53 3-1.6a5.67 5.67 0 0 1 4.38-.55c1.08.3 2.06.08 3.18-.45m182.39-80.44c0 .23-.02.4 0 .55.21 1.13.47 1.34 1.6 1.34h3.77c.3.01.59.06.87.13 1.1.28 1.98.85 2.6 1.85.75 1.21 1.27 1.38 2.74 1.06.18-.24.05-.48-.03-.7a6.61 6.61 0 0 0-4.48-4.27 13.18 13.18 0 0 0-7.07.04m-309.33 29.91c-.01.18-.06.35-.03.5.31 1.57.63 3.13.96 4.7.04.2.1.4.17.6.9 2.9 2.9 4.49 5.98 4.71a1.8 1.8 0 0 0-.66-2.27 2.7 2.7 0 0 0-.68-.31c-1.3-.39-2.03-1.33-2.44-2.53-.26-.75-.41-1.54-.58-2.32-.12-.57-.18-1.16-.28-1.74a7.14 7.14 0 0 0-.2-.85c-.1-.36-.38-.56-.74-.61a3 3 0 0 0-1.5.11m269.56 22.28c1.03.1 2 .2 2.92-.56a5.97 5.97 0 0 1 4.72-1.3c.96.12 1.92.22 2.88.32.46.05.92.07 1.39.1.5-.52.7-1.14.87-1.88-.27-.1-.48-.2-.71-.25-2.14-.48-4.3-.81-6.5-.48a7.36 7.36 0 0 0-5.54 3.72c-.04.07-.02.16-.03.33m-230.79-.01c-.05-.2-.04-.33-.1-.42a7.45 7.45 0 0 0-5.49-3.62 17.56 17.56 0 0 0-6.24.42c-.25.05-.5.12-.74.18-.03.01-.06.05-.1.08 0 .8 0 .8.64 1.85.6.15 1.22 0 1.83-.05.84-.08 1.67-.18 2.5-.28a5.95 5.95 0 0 1 4.73 1.27c.92.76 1.89.7 2.97.57m172.86 27.65c.59-.38.96-.87 1.35-1.39-.1-.13-.15-.25-.24-.31a18.3 18.3 0 0 0-4.85-2.38 8.92 8.92 0 0 0-4.35-.36 7.36 7.36 0 0 0-3.83 2.05c1.24.71 1.93.84 3 .44a6.21 6.21 0 0 1 4.9.2c.96.43 1.91.87 2.87 1.29.38.17.77.3 1.16.46m102.62-80.98c-.9-3-3-4.74-5.94-4.95-1.97-.14-3.94-.04-5.97.05-.19.69.06 1.26.34 1.8.17.34.5.43.86.41.8-.03 1.6-.06 2.4-.12a9.9 9.9 0 0 1 2.5.08c1.18.2 2.12.73 2.82 1.73.83 1.2 1.36 1.35 2.99 1m-54.06-27.21c-.65-1.03-1.25-1.84-2.33-2.17a5.98 5.98 0 0 1-3.64-3.08c-.67-1.26-1.38-2.5-2.09-3.77-.74-.14-1.4.08-2.07.3 0 .13-.02.22 0 .29.78 2 1.74 3.9 3.1 5.59.3.39.66.76 1.03 1.1a6.8 6.8 0 0 0 6 1.74m-193.2-12.24c-.62-.41-1.27-.36-1.9-.58-.2.26-.38.47-.53.72-.66 1.07-1.32 2.14-1.96 3.23a5.76 5.76 0 0 1-3.6 2.79c-1.1.3-1.76 1.02-2.43 1.96.9.45 1.76.41 2.62.27a6.57 6.57 0 0 0 2.66-1.1 10.9 10.9 0 0 0 2.29-2.16 18.35 18.35 0 0 0 2.85-5.13m231.84 36.65c.13-1.12-.09-1.85-1-2.36a8.44 8.44 0 0 1-2.67-2.78c-.5-.73-.83-1.5-.9-2.42-.09-.9-.45-1.77-.78-2.64-.78-.2-1.5-.09-2.35-.06.15.52.26.91.39 1.3.35 1.13.83 2.22 1.02 3.36a7.47 7.47 0 0 0 2.08 3.78 5.98 5.98 0 0 0 3.87 1.89c.11.01.23-.05.34-.07m-285.63-7.33c-.68-.11-1.3-.23-1.91-.3-1.62-.2-3.24-.44-4.88-.1-2.36.51-4.13 1.76-5.1 4.03a1.7 1.7 0 0 0-.12.35c-.01.08.01.17.02.25 1.33.51 2.07.38 2.8-.7a4.12 4.12 0 0 1 3.3-1.8c.66-.05 1.33 0 2 .04.83.05 1.67.16 2.5.2.8.03 1.03-.16 1.23-.95.08-.31.1-.64.16-1.02m225.74 82.82l.45-.58c.22-.3.43-.62.65-.95-.08-.12-.12-.26-.22-.3a17.61 17.61 0 0 0-6.85-1.98c-2.32-.1-4.32.57-5.82 2.42-.1.13-.17.29-.24.44-.01.02.03.07.07.2 1 .12 1.98.28 3-.24a5.67 5.67 0 0 1 4.53-.32c1.07.36 2.17.67 3.25 1l1.18.3m88.65-60.31a5.97 5.97 0 0 0-4.07-4.95c-.71-.22-1.46-.4-2.2-.46-1.6-.15-3.19-.22-4.78-.3-.16-.02-.32.04-.47.06l-.03.16c.15 1.9.32 2.04 2.18 2.1 1.05.03 2.1.07 3.14.17 1.5.15 2.68.8 3.47 2.18.67 1.17 1.3 1.35 2.76 1.04m-346.92.04c1.27.3 2.23 0 2.83-1.13.72-1.35 1.92-1.96 3.36-2.12a35.6 35.6 0 0 1 3.26-.18c1.67-.03 1.84-.07 2.15-1.9.02-.08 0-.17-.02-.29-.09-.04-.2-.12-.3-.12-2.1 0-4.19.11-6.25.5a6.1 6.1 0 0 0-5.03 5.24m87.57 58.77l1.05 1.48c.39-.09.75-.14 1.1-.25 1.13-.33 2.26-.66 3.37-1.03a5.67 5.67 0 0 1 4.53.31c1.01.52 2 .37 2.99.25.15-.33-.03-.48-.15-.64a6.45 6.45 0 0 0-5.43-2.43c-2.6.04-5.03.84-7.32 2.06-.03.01-.04.07-.14.25m-27.12-98.85c-.1-.09-.16-.18-.23-.18l-1.66-.19c-.17.27-.34.5-.46.76-.51 1.1-1.03 2.2-1.5 3.33a6.19 6.19 0 0 1-3.28 3.3c-1.24.57-1.4.75-2.1 2.18.1.25.34.2.54.22a6.16 6.16 0 0 0 4.4-1.52 9.85 9.85 0 0 0 1.9-2.18 19.5 19.5 0 0 0 2.34-5.27c.04-.15.04-.32.05-.45"/><path d="M486.13 4481.82c-.08-.3-.12-.59-.24-.85a6.61 6.61 0 0 0-4.86-3.82 9.09 9.09 0 0 0-3.13-.17l-3.25.4c-.16.03-.32.1-.51.14 0 .23-.03.44 0 .64.2 1.16.45 1.36 1.58 1.3.8-.05 1.6-.14 2.4-.22a8.62 8.62 0 0 1 2.62.11 3.5 3.5 0 0 1 2.38 1.53c.72 1.18 1.74 1.3 3 .94m-301.04.91c-2.33-.09-4.47-.26-6.6 0-2.79.35-4.5 2.05-5.42 4.63-.02.07.01.17.02.25 1.4.4 2.1.24 2.83-.85a4.12 4.12 0 0 1 3.24-1.9c.71-.06 1.43-.05 2.14-.04.8.02 1.59.11 2.39.12.66 0 .89-.17 1.1-.82.12-.39.17-.8.3-1.39m144.02-50.69c-.5-.54-1.05-.81-1.63-1.17-.24.16-.5.3-.71.47-.96.75-1.91 1.5-2.85 2.28a6.1 6.1 0 0 1-4.67 1.45c-1.08-.1-1.9.44-2.76 1.04.75.7 1.6 1.01 2.53 1.14a7.3 7.3 0 0 0 3.7-.43 13.85 13.85 0 0 0 4.07-2.47c.82-.7 1.6-1.45 2.32-2.31m-101.95 28.39a6.8 6.8 0 0 0 6-1.82 10.1 10.1 0 0 0 1.97-2.45c.7-1.24 1.3-2.53 1.94-3.8.1-.18.11-.4.18-.64-.36-.1-.67-.22-.99-.28-.32-.07-.66-.07-1.04-.1-.2.33-.4.64-.58.96l-1.65 2.97a6.06 6.06 0 0 1-3.45 2.95c-1.24.43-1.59.78-2.38 2.21m256.3 63.14c.15-.48.27-.83.37-1.2.06-.19.1-.39.14-.6-.48-.33-1-.28-1.48-.34a15.99 15.99 0 0 0-5.5.1c-.95.21-1.86.54-2.66 1.1a5.27 5.27 0 0 0-2.18 3.17c.6.38 1.21.34 1.8.1.34-.15.7-.35.94-.61 1.14-1.23 2.63-1.6 4.2-1.71.96-.07 1.93-.01 2.9-.01h1.47m-287.44-48.93c-.69-.22-1.39-.1-2.13-.1a9.7 9.7 0 0 0-.89 2.88c-.03.24-.03.5-.13.73-.66 1.62-1.56 3.09-3.07 4.04-.9.56-1.43 1.28-1.48 2.33 0 .08.04.16.09.32.2 0 .45.06.68.02a6.33 6.33 0 0 0 4.26-2.67c.4-.55.7-1.14 1.05-1.72a.9.9 0 0 0 .17-.34c.24-1.76.97-3.38 1.45-5.07.03-.12 0-.25 0-.42m-13.76 47.04c.1.43.16.72.24 1l.32.87c.77 0 1.53-.02 2.28 0 1.04.04 2.1.05 3.13.18a5 5 0 0 1 3.1 1.53c.73.76 1.63 1 2.72.62-.04-.25-.03-.5-.11-.71a5.38 5.38 0 0 0-3-3.08 9.8 9.8 0 0 0-2.17-.63 17.42 17.42 0 0 0-6.5.22m310.62-12.53c.95.2 1.86.1 2.5-.71 1.41-1.82 3.37-2.38 5.53-2.54.58-.04 1.17-.03 1.76-.1 1.27-.13 1.5-.44 1.36-1.7-.01-.12-.07-.24-.13-.43-.26-.03-.54-.1-.82-.1a17.21 17.21 0 0 0-4.5.3c-.95.22-1.86.53-2.7 1.03a6.77 6.77 0 0 0-2.95 3.49c-.06.15-.1.32-.12.48-.01.08.04.16.07.28m-319.36-.03a6.72 6.72 0 0 0-3.57-4.45 9.33 9.33 0 0 0-3.48-1.01c-1.17-.1-2.35-.07-3.53-.08-.2 0-.4.06-.56.09-.07.14-.12.2-.13.28-.18 1.46.03 1.74 1.44 1.87.59.05 1.18.05 1.77.08 1.1.05 2.15.31 3.16.76a4.7 4.7 0 0 1 2 1.49c.7.96 1.63 1.25 2.9.97m324.88-7.04c-.23-1.11-.6-1.98-1.51-2.6a5.4 5.4 0 0 1-2.32-3.9c-.14-1-.33-1.99-.51-2.98-.08-.4-.19-.8-.3-1.26l-1.84-.15c-.04.32-.11.56-.1.8.02 1.9.31 3.76.99 5.55a8.62 8.62 0 0 0 1.67 2.8 5.4 5.4 0 0 0 2.9 1.68c.3.07.64.04 1.03.06"/><path d="M181.25 4485.49h-1.82c-.1.27-.22.49-.27.72-.25 1.15-.49 2.3-.71 3.44a5.73 5.73 0 0 1-2.73 4.03c-.5.3-.84.7-1 1.24-.1.4-.37.75-.28 1.19a5.98 5.98 0 0 0 3.93-1.7 7.77 7.77 0 0 0 1.79-2.7 18.99 18.99 0 0 0 1.21-5.88c0-.08-.05-.15-.12-.34m-12.57 24.46c-.03.16-.07.24-.06.31l.32 1.52c.25.06.49.14.73.16 1.17.09 2.34.2 3.51.22 1.7.04 3.12.66 4.21 1.93.72.84 1.63 1.08 2.76 1.16-.04-.28-.04-.48-.1-.67a5.66 5.66 0 0 0-2.96-3.57 10.4 10.4 0 0 0-2.1-.8 17.27 17.27 0 0 0-5.5-.43c-.29.02-.56.11-.8.17m318.24-24.43c-.49-.04-.86-.08-1.23-.09-.24 0-.49.05-.65.06-.1.12-.14.15-.14.18.06 2.29.44 4.52 1.43 6.6a6.74 6.74 0 0 0 5.38 3.93c.25-.47-.08-.83-.18-1.2a1.82 1.82 0 0 0-.95-1.27 5.95 5.95 0 0 1-2.84-4.27c-.24-1.28-.53-2.54-.82-3.94m10.37 26.32l.38-1.84c-.34-.09-.61-.2-.89-.22a18.16 18.16 0 0 0-5.5.4 8.01 8.01 0 0 0-2.96 1.33 5.7 5.7 0 0 0-2.28 3.73c1.08-.07 1.99-.23 2.68-1.03a5.23 5.23 0 0 1 2.32-1.67c.6-.2 1.22-.3 1.84-.35 1.26-.12 2.51-.17 3.77-.26.16 0 .33-.04.64-.1m-321.94 4.11c-.03.68.22 1.2.36 1.72.42.3.86.24 1.27.26 1.05.03 2.1.07 3.15.07 1.6.01 2.98.53 4.06 1.7.74.81 1.66 1.06 2.77 1.17-.02-.27 0-.48-.06-.66a5.86 5.86 0 0 0-3.04-3.52 9.32 9.32 0 0 0-3.13-.9 22.65 22.65 0 0 0-4.9.02c-.13 0-.24.07-.48.14m315.16 1.86l.41-1.71c-.14-.11-.23-.24-.33-.25a18.83 18.83 0 0 0-6.37.17 7.4 7.4 0 0 0-2.43 1 5.77 5.77 0 0 0-2.6 3.79 3.6 3.6 0 0 0 2.37-.66c.07-.05.12-.1.18-.17a5.98 5.98 0 0 1 4.95-2c.83.03 1.67-.02 2.5-.05.42-.02.83-.07 1.32-.12m-322.7-15.7a4.9 4.9 0 0 0 3.23-1.1 6.45 6.45 0 0 0 1.7-2c1.32-2.37 1.69-4.95 1.67-7.68a4.34 4.34 0 0 0-1.92.06c-.37 1-.4 2.06-.63 3.07-.11.49-.19.99-.27 1.48a5.02 5.02 0 0 1-2.12 3.44c-.94.64-1.39 1.51-1.66 2.73m13.24-11.69a6.77 6.77 0 0 0 5.76-3.84 14.56 14.56 0 0 0 1.4-4.56c.1-.65.16-1.32.24-2.01-.69-.22-1.3-.13-1.95-.05-.1.28-.21.55-.29.83l-.81 3.3a5.58 5.58 0 0 1-2.74 3.77c-1 .54-1.3 1.45-1.6 2.56m296.74-10.49c.16 2.5.59 4.83 1.78 6.95a6.53 6.53 0 0 0 5.45 3.52c-.04-1-.5-1.9-1.17-2.36-.1-.07-.22-.12-.33-.19a5.58 5.58 0 0 1-2.62-3.53c-.32-1.21-.62-2.43-.93-3.65-.07-.24-.16-.46-.24-.7a5.7 5.7 0 0 0-1.94-.04m21.52 23.44l1.84-.3a45.4 45.4 0 0 0-.7-5.43c-.86-.35-.86-.35-1.98-.25-.21 1.28.08 2.56.22 3.83.09.73.12 1.5.62 2.15m-334.21-.29l1.8.29c.45-.56.47-1.26.58-1.9.35-2.03.37-3.14.16-4.15a4.11 4.11 0 0 0-1.9.26c-.33 1.72-.5 3.47-.75 5.2-.02.1.08.22.11.3m166.9 72.46l1.1-.7 1.11.69 1.54-1.04c-.42-.82-1.16-1.56-2.56-2.54a7.38 7.38 0 0 0-2.76 2.5l1.57 1.09m3.83-147.23l-.61-.35c-1.68-1-3.26-.76-4.83.4.44.78 1.08 1.27 1.98 1.31 1.3.07 2.62.16 3.46-1.35"/></g><g stroke-width="15.84"><path d="M333.48 4553.3a49.73 49.73 0 1 1 0-99.46 49.73 49.73 0 0 1 0 99.47zm-17.08-18.53h3.77l13.14-13.14v-11.42l-9.37-9.37v-.2l9.37-9.37v-6.13h-2.85l-6.52 6.52v-19.72h-7.54z"/><path fill="#fff" d="M333.36 4510.26l9.43-9.42v-28.9h7.54v62.83h-3.77l-13.25-13.15z"/><path d="M339.02 4515.92l3.77-3.78v7.55zm-3.77 0l10.05-10.06v20.1zm-13.83 10.05v-20.1l10.06 10.05zm-2.51-51.52v57.8l14.45-14.45 14.45 14.45v-57.8h-2.51v27.64l-12 11.89-11.88-11.89v-1.96l9.86-9.86v-3.08l-9.86 9.88v-22.63zm5.03 37.7v7.53l3.77-3.77z"/></g></g></svg>
